<svg width="161" height="60" viewBox="0 0 161 60" fill="none" xmlns="http://www.w3.org/2000/svg">
<path d="M57.6676 22.8533C57.6676 22.9213 57.6517 22.9807 57.6192 23.0321C57.5867 23.0835 57.5294 23.1235 57.4485 23.1535C57.3677 23.1835 57.26 23.2089 57.1256 23.2302C56.9919 23.2516 56.8231 23.2623 56.6199 23.2623C56.4251 23.2623 56.2582 23.2509 56.12 23.2302C55.9818 23.2096 55.8722 23.1835 55.7914 23.1535C55.7098 23.1242 55.6532 23.0835 55.6207 23.0321C55.5882 22.9814 55.5723 22.9213 55.5723 22.8533V6.99963C55.5723 6.93157 55.5901 6.87219 55.627 6.82082C55.6633 6.77011 55.7245 6.72942 55.8098 6.70006C55.8952 6.67004 56.0053 6.64468 56.1391 6.62267C56.2728 6.60198 56.4333 6.59131 56.6199 6.59131C56.8231 6.59131 56.9913 6.60198 57.1256 6.62267C57.2594 6.64402 57.367 6.67004 57.4485 6.70006C57.5294 6.72942 57.5867 6.77011 57.6192 6.82082C57.6517 6.87219 57.6676 6.93157 57.6676 6.99963V22.8533Z" fill="white"/>
<path d="M71.0717 22.8659C71.0717 22.9347 71.0551 22.9914 71.0226 23.0381C70.9902 23.0848 70.9373 23.1255 70.8641 23.1595C70.7908 23.1935 70.6895 23.2189 70.559 23.2362C70.4291 23.2536 70.2667 23.2622 70.0718 23.2622C69.8686 23.2622 69.7017 23.2536 69.5724 23.2362C69.4419 23.2195 69.3406 23.1942 69.2674 23.1595C69.1941 23.1255 69.1413 23.0848 69.1088 23.0381C69.0763 22.9914 69.0604 22.934 69.0604 22.8659V16.1394C69.0604 15.4842 69.0113 14.9565 68.9139 14.5568C68.8165 14.1565 68.6744 13.8122 68.4878 13.5227C68.3012 13.2331 68.0592 13.0123 67.763 12.8588C67.4662 12.706 67.1236 12.6293 66.7332 12.6293C66.2294 12.6293 65.7256 12.8161 65.2219 13.1904C64.7181 13.5654 64.1901 14.1138 63.6379 14.837V22.8659C63.6379 22.9347 63.6213 22.9914 63.5889 23.0381C63.5564 23.0848 63.5035 23.1255 63.4303 23.1595C63.357 23.1935 63.2558 23.2189 63.1252 23.2362C62.9953 23.2536 62.8291 23.2622 62.6259 23.2622C62.431 23.2622 62.268 23.2536 62.138 23.2362C62.0081 23.2195 61.9043 23.1942 61.8272 23.1595C61.7502 23.1255 61.6973 23.0848 61.6686 23.0381C61.64 22.9914 61.626 22.934 61.626 22.8659V11.3777C61.626 11.3096 61.6381 11.2522 61.6629 11.2055C61.6871 11.1588 61.7362 11.1161 61.8088 11.0781C61.882 11.0394 61.975 11.0141 62.089 11.0014C62.2024 10.988 62.3527 10.982 62.5399 10.982C62.7189 10.982 62.8673 10.9887 62.9851 11.0014C63.1029 11.0141 63.194 11.0394 63.259 11.0781C63.3239 11.1161 63.3704 11.1588 63.3991 11.2055C63.4271 11.2522 63.4417 11.3096 63.4417 11.3777V12.8969C64.0589 12.1736 64.6748 11.6439 65.2875 11.3076C65.9001 10.9714 66.5205 10.8032 67.1453 10.8032C67.8764 10.8032 68.4916 10.9333 68.991 11.1922C69.4909 11.4517 69.8947 11.7987 70.2036 12.233C70.5119 12.6667 70.7335 13.1751 70.8672 13.7582C71.001 14.3413 71.0685 15.0412 71.0685 15.8578V22.8659H71.0717Z" fill="white"/>
<path d="M84.1821 22.8659C84.1821 22.9347 84.1662 22.9914 84.1337 23.0381C84.1012 23.0848 84.0483 23.1255 83.9751 23.1595C83.9025 23.1935 83.8006 23.2189 83.67 23.2362C83.5401 23.2536 83.3777 23.2622 83.1828 23.2622C82.9796 23.2622 82.8128 23.2536 82.6828 23.2362C82.5529 23.2195 82.4517 23.1942 82.3784 23.1595C82.3052 23.1255 82.2523 23.0848 82.2198 23.0381C82.1873 22.9914 82.1714 22.934 82.1714 22.8659V16.1394C82.1714 15.4842 82.1224 14.9565 82.0256 14.5568C81.9281 14.1565 81.7861 13.8122 81.5989 13.5227C81.4116 13.2331 81.1702 13.0123 80.8734 12.8588C80.5766 12.7054 80.234 12.6293 79.8442 12.6293C79.3404 12.6293 78.8367 12.8161 78.3329 13.1904C77.8291 13.5654 77.3011 14.1138 76.7489 14.837V22.8659C76.7489 22.9347 76.733 22.9914 76.7005 23.0381C76.6681 23.0848 76.6152 23.1255 76.542 23.1595C76.4687 23.1935 76.3674 23.2189 76.2375 23.2362C76.1076 23.2536 75.9407 23.2622 75.7376 23.2622C75.5427 23.2622 75.3796 23.2536 75.2503 23.2362C75.1204 23.2195 75.0166 23.1942 74.9395 23.1595C74.8618 23.1255 74.8096 23.0848 74.781 23.0381C74.7523 22.9914 74.7383 22.934 74.7383 22.8659V11.3777C74.7383 11.3096 74.7504 11.2522 74.7752 11.2055C74.8001 11.1588 74.8485 11.1161 74.9211 11.0781C74.9943 11.0394 75.0873 11.0141 75.2013 11.0014C75.3153 10.988 75.4656 10.982 75.6522 10.982C75.8312 10.982 75.9789 10.9887 76.0968 11.0014C76.2146 11.0141 76.3057 11.0394 76.3713 11.0781C76.4362 11.1161 76.4827 11.1588 76.5114 11.2055C76.54 11.2522 76.5541 11.3096 76.5541 11.3777V12.8969C77.1712 12.1736 77.7864 11.6439 78.3998 11.3076C79.0131 10.9714 79.6321 10.8032 80.2576 10.8032C80.9881 10.8032 81.604 10.9333 82.1033 11.1922C82.6026 11.4517 83.007 11.7987 83.3153 12.233C83.6235 12.6673 83.8452 13.1751 83.9796 13.7582C84.1133 14.3413 84.1802 15.0412 84.1802 15.8578V22.8659H84.1821Z" fill="white"/>
<path d="M98.0491 16.9939C98.0491 17.9299 97.9313 18.7913 97.695 19.5792C97.46 20.3665 97.1084 21.045 96.6416 21.6148C96.1747 22.1846 95.5901 22.6296 94.887 22.9492C94.1838 23.2687 93.3699 23.4275 92.4438 23.4275C91.542 23.4275 90.7567 23.2874 90.0861 23.0065C89.4161 22.7257 88.8569 22.3173 88.4104 21.7809C87.964 21.2452 87.6309 20.594 87.4118 19.8281C87.1927 19.0628 87.0825 18.1948 87.0825 17.224C87.0825 16.288 87.1984 15.4266 87.4296 14.6394C87.6615 13.8521 88.0105 13.1736 88.4779 12.6031C88.9448 12.0333 89.5275 11.5903 90.2262 11.2761C90.9249 10.9612 91.7414 10.8037 92.6757 10.8037C93.5775 10.8037 94.3634 10.9438 95.0334 11.2247C95.7034 11.5056 96.2626 11.9139 96.7091 12.4497C97.1555 12.9861 97.4912 13.6366 97.7141 14.4032C97.937 15.1691 98.0491 16.0324 98.0491 16.9939ZM95.9652 17.1346C95.9652 16.5135 95.9098 15.9264 95.799 15.3726C95.6882 14.8195 95.506 14.3345 95.2519 13.9175C94.9984 13.5005 94.6539 13.1709 94.2189 12.9287C93.7845 12.6858 93.2438 12.5651 92.5967 12.5651C91.998 12.5651 91.4834 12.6758 91.0529 12.8973C90.623 13.1188 90.2682 13.4311 89.9893 13.8354C89.7103 14.2397 89.504 14.7181 89.3683 15.2712C89.2333 15.8243 89.1658 16.4288 89.1658 17.0839C89.1658 17.7138 89.2212 18.3049 89.332 18.858C89.4422 19.4111 89.6269 19.8941 89.8848 20.3064C90.1434 20.7194 90.4892 21.047 90.9236 21.2899C91.3586 21.5321 91.8993 21.6528 92.547 21.6528C93.1374 21.6528 93.6495 21.5427 94.0838 21.3212C94.5188 21.0997 94.8748 20.7895 95.1538 20.3892C95.4328 19.9895 95.6378 19.5132 95.7684 18.9594C95.8996 18.407 95.9652 17.7985 95.9652 17.1346Z" fill="white"/>
<path d="M109.892 11.3524C109.892 11.3864 109.89 11.4225 109.886 11.4612C109.882 11.4992 109.876 11.5399 109.868 11.5826C109.86 11.6253 109.85 11.672 109.837 11.7234C109.825 11.7741 109.811 11.8301 109.795 11.8888L106.054 22.8026C106.021 22.8967 105.98 22.9728 105.926 23.0322C105.873 23.0915 105.794 23.1389 105.689 23.1723C105.583 23.2063 105.449 23.2296 105.287 23.2423C105.124 23.255 104.921 23.2617 104.677 23.2617C104.433 23.2617 104.231 23.253 104.068 23.2357C103.905 23.219 103.774 23.1936 103.672 23.1589C103.571 23.1249 103.491 23.0782 103.435 23.0188C103.378 22.9594 103.333 22.8867 103.3 22.802L99.572 11.8882C99.5389 11.7861 99.5128 11.6967 99.4924 11.6206C99.4726 11.5439 99.4599 11.4865 99.4561 11.4478C99.4516 11.4098 99.4497 11.3778 99.4497 11.3524C99.4497 11.2843 99.4656 11.225 99.4981 11.1736C99.5306 11.1229 99.586 11.0822 99.6631 11.0522C99.7401 11.0228 99.8414 11.0035 99.9675 10.9948C100.094 10.9861 100.25 10.9814 100.437 10.9814C100.672 10.9814 100.861 10.9881 101.004 11.0008C101.146 11.0135 101.255 11.0368 101.333 11.0708C101.41 11.1049 101.467 11.1476 101.503 11.1983C101.541 11.249 101.574 11.313 101.607 11.3898L104.702 20.8605L104.751 21.0133L104.787 20.8605L107.846 11.3898C107.862 11.313 107.89 11.249 107.931 11.1983C107.972 11.1469 108.031 11.1042 108.108 11.0708C108.185 11.0368 108.29 11.0135 108.425 11.0008C108.559 10.9875 108.735 10.9814 108.955 10.9814C109.141 10.9814 109.295 10.9861 109.418 10.9948C109.54 11.0035 109.635 11.0248 109.704 11.0582C109.773 11.0929 109.822 11.1329 109.85 11.1796C109.878 11.227 109.892 11.2843 109.892 11.3524Z" fill="white"/>
<path d="M120.067 22.8784C120.067 22.9805 120.035 23.0573 119.97 23.1086C119.904 23.1593 119.816 23.198 119.702 23.2234C119.588 23.2487 119.422 23.2614 119.202 23.2614C118.991 23.2614 118.822 23.2487 118.697 23.2234C118.57 23.1974 118.479 23.1593 118.422 23.1086C118.365 23.0573 118.337 22.9812 118.337 22.8784V21.7295C117.857 22.266 117.323 22.683 116.734 22.9805C116.145 23.2781 115.522 23.4269 114.864 23.4269C114.287 23.4269 113.764 23.3481 113.298 23.1907C112.831 23.0332 112.433 22.8057 112.103 22.5082C111.774 22.2106 111.519 21.8443 111.336 21.41C111.153 20.9756 111.062 20.4826 111.062 19.9295C111.062 19.283 111.188 18.7212 111.439 18.2448C111.691 17.7685 112.053 17.3722 112.524 17.0579C112.994 16.743 113.572 16.5068 114.254 16.3494C114.936 16.1926 115.704 16.1132 116.557 16.1132H118.068V15.2198C118.068 14.7775 118.023 14.3858 117.934 14.0456C117.844 13.7053 117.7 13.4217 117.501 13.1962C117.302 12.9714 117.044 12.8006 116.727 12.6858C116.411 12.5711 116.021 12.5137 115.557 12.5137C115.062 12.5137 114.617 12.5758 114.223 12.6992C113.829 12.8226 113.484 12.9587 113.187 13.1075C112.891 13.257 112.643 13.3931 112.444 13.5158C112.246 13.6393 112.097 13.7006 112 13.7006C111.934 13.7006 111.878 13.684 111.828 13.6499C111.78 13.6159 111.737 13.5652 111.7 13.4971C111.664 13.4291 111.637 13.3417 111.621 13.2349C111.605 13.1289 111.597 13.0121 111.597 12.884C111.597 12.6712 111.611 12.503 111.64 12.3796C111.668 12.2562 111.737 12.1394 111.846 12.0287C111.956 11.9179 112.146 11.7885 112.413 11.6397C112.682 11.4909 112.99 11.3541 113.34 11.2314C113.689 11.1079 114.07 11.0059 114.485 10.9251C114.899 10.8437 115.318 10.8037 115.74 10.8037C116.528 10.8037 117.198 10.8978 117.751 11.0846C118.303 11.2721 118.749 11.5463 119.091 11.9079C119.432 12.2695 119.681 12.7185 119.835 13.255C119.989 13.7907 120.066 14.4165 120.066 15.1311V22.8784H120.067ZM118.069 17.6324H116.35C115.798 17.6324 115.319 17.6817 114.913 17.7791C114.506 17.8766 114.17 18.0213 113.901 18.2128C113.633 18.4043 113.436 18.6345 113.31 18.902C113.184 19.1702 113.121 19.4785 113.121 19.8274C113.121 20.4239 113.302 20.8976 113.663 21.2505C114.025 21.6041 114.531 21.7803 115.181 21.7803C115.709 21.7803 116.199 21.6401 116.65 21.3593C117.1 21.0784 117.573 20.6487 118.069 20.0696V17.6324H118.069Z" fill="white"/>
<path d="M133.068 11.0461C133.312 11.0461 133.479 11.1034 133.567 11.2182C133.657 11.333 133.702 11.5011 133.702 11.7226V22.8659C133.702 22.9346 133.686 22.9914 133.653 23.0381C133.62 23.0848 133.565 23.1255 133.488 23.1595C133.411 23.1935 133.307 23.2189 133.177 23.2362C133.048 23.2536 132.89 23.2622 132.703 23.2622C132.5 23.2622 132.333 23.2536 132.203 23.2362C132.073 23.2195 131.97 23.1942 131.893 23.1595C131.816 23.1255 131.76 23.0848 131.729 23.0381C131.695 22.9914 131.679 22.934 131.679 22.8659V12.7948H126.014V19.2024C126.014 19.9944 126.125 20.5922 126.349 20.9958C126.572 21.4001 126.972 21.6023 127.549 21.6023C127.736 21.6023 127.903 21.5829 128.049 21.5449C128.194 21.5062 128.325 21.4662 128.438 21.4235C128.552 21.3814 128.649 21.3407 128.731 21.302C128.812 21.264 128.885 21.2447 128.95 21.2447C128.991 21.2447 129.029 21.2553 129.066 21.2767C129.103 21.298 129.131 21.3387 129.152 21.3981C129.172 21.4582 129.191 21.5382 129.206 21.641C129.222 21.7431 129.231 21.8705 129.231 22.0239C129.231 22.2708 129.215 22.4643 129.182 22.6051C129.15 22.7458 129.101 22.8519 129.036 22.924C128.971 22.9967 128.873 23.0627 128.744 23.1215C128.613 23.1815 128.465 23.2302 128.299 23.2682C128.133 23.3063 127.956 23.3383 127.769 23.3643C127.582 23.3897 127.395 23.403 127.209 23.403C126.64 23.403 126.153 23.3243 125.746 23.1668C125.34 23.0094 125.007 22.7712 124.748 22.4516C124.487 22.1327 124.299 21.729 124.181 21.2393C124.062 20.7503 124.004 20.1732 124.004 19.51V12.7948H122.469C122.347 12.7948 122.249 12.7267 122.176 12.5906C122.103 12.4545 122.067 12.233 122.067 11.9268C122.067 11.7653 122.077 11.6292 122.097 11.5184C122.117 11.4077 122.144 11.3163 122.176 11.2436C122.209 11.1708 122.251 11.1201 122.304 11.0901C122.357 11.0607 122.416 11.0461 122.481 11.0461H124.004V8.31461C124.004 8.25523 124.018 8.19986 124.046 8.14848C124.075 8.09711 124.127 8.05241 124.205 8.01438C124.282 7.97568 124.385 7.94833 124.515 7.93098C124.645 7.9143 124.807 7.90563 125.003 7.90563C125.206 7.90563 125.372 7.9143 125.502 7.93098C125.632 7.94833 125.733 7.97568 125.807 8.01438C125.881 8.05241 125.933 8.09711 125.966 8.14848C125.998 8.19986 126.014 8.25523 126.014 8.31461V11.0461H133.068ZM133.933 7.49731C133.933 7.99103 133.843 8.32662 133.665 8.50543C133.486 8.68423 133.157 8.77364 132.678 8.77364C132.207 8.77364 131.883 8.6869 131.709 8.5121C131.535 8.33796 131.448 8.00771 131.448 7.52333C131.448 7.02961 131.537 6.69335 131.716 6.51455C131.894 6.33574 132.223 6.24634 132.703 6.24634C133.174 6.24634 133.497 6.33374 133.672 6.50787C133.846 6.68268 133.933 7.01227 133.933 7.49731Z" fill="white"/>
<path d="M147.629 16.9939C147.629 17.9299 147.511 18.7913 147.276 19.5792C147.039 20.3665 146.689 21.045 146.222 21.6148C145.755 22.1846 145.17 22.6296 144.467 22.9492C143.764 23.2681 142.95 23.4275 142.024 23.4275C141.122 23.4275 140.336 23.2874 139.666 23.0065C138.996 22.7257 138.437 22.3173 137.991 21.7809C137.544 21.2452 137.21 20.594 136.992 19.8281C136.772 19.0628 136.663 18.1948 136.663 17.224C136.663 16.288 136.779 15.4266 137.01 14.6394C137.241 13.8521 137.591 13.1736 138.058 12.6031C138.524 12.0333 139.107 11.5903 139.806 11.2761C140.506 10.9612 141.321 10.8037 142.256 10.8037C143.158 10.8037 143.943 10.9438 144.614 11.2247C145.284 11.5056 145.842 11.9139 146.289 12.4497C146.735 12.9861 147.071 13.6366 147.294 14.4032C147.517 15.1691 147.629 16.0324 147.629 16.9939ZM145.546 17.1346C145.546 16.5135 145.491 15.9264 145.38 15.3726C145.268 14.8195 145.086 14.3345 144.833 13.9175C144.578 13.5005 144.235 13.1709 143.8 12.9287C143.365 12.6858 142.824 12.5651 142.177 12.5651C141.578 12.5651 141.064 12.6758 140.634 12.8973C140.203 13.1188 139.849 13.4311 139.57 13.8354C139.291 14.2397 139.084 14.7181 138.949 15.2712C138.813 15.8243 138.746 16.4288 138.746 17.0839C138.746 17.7138 138.801 18.3049 138.913 18.858C139.024 19.4111 139.208 19.8941 139.466 20.3064C139.723 20.7194 140.07 21.047 140.505 21.2899C140.939 21.5321 141.48 21.6528 142.128 21.6528C142.718 21.6528 143.23 21.5427 143.665 21.3212C144.099 21.0997 144.455 20.7895 144.735 20.3892C145.013 19.9895 145.218 19.5132 145.349 18.9594C145.48 18.407 145.546 17.7985 145.546 17.1346Z" fill="white"/>
<path d="M160.034 22.8659C160.034 22.9347 160.017 22.9914 159.985 23.0381C159.952 23.0848 159.899 23.1255 159.826 23.1595C159.753 23.1935 159.652 23.2189 159.521 23.2362C159.391 23.2536 159.229 23.2622 159.034 23.2622C158.831 23.2622 158.664 23.2536 158.534 23.2362C158.404 23.2195 158.303 23.1942 158.229 23.1595C158.156 23.1255 158.103 23.0848 158.071 23.0381C158.038 22.9914 158.022 22.934 158.022 22.8659V16.1394C158.022 15.4842 157.973 14.9565 157.876 14.5568C157.779 14.1565 157.637 13.8122 157.45 13.5227C157.263 13.2331 157.021 13.0123 156.724 12.8588C156.428 12.706 156.085 12.6293 155.695 12.6293C155.191 12.6293 154.688 12.8161 154.184 13.1904C153.68 13.5654 153.153 14.1138 152.601 14.837V22.8659C152.601 22.9347 152.584 22.9914 152.552 23.0381C152.519 23.0848 152.466 23.1255 152.394 23.1595C152.32 23.1935 152.219 23.2189 152.088 23.2362C151.959 23.2536 151.792 23.2622 151.588 23.2622C151.394 23.2622 151.231 23.2536 151.101 23.2362C150.971 23.2195 150.868 23.1942 150.791 23.1595C150.713 23.1255 150.661 23.0848 150.633 23.0381C150.604 22.9914 150.59 22.934 150.59 22.8659V11.3777C150.59 11.3096 150.603 11.2522 150.627 11.2055C150.651 11.1588 150.7 11.1161 150.773 11.0781C150.846 11.0394 150.939 11.0141 151.053 11.0014C151.166 10.988 151.317 10.982 151.504 10.982C151.682 10.982 151.831 10.9887 151.948 11.0014C152.066 11.0141 152.157 11.0394 152.223 11.0781C152.288 11.1161 152.334 11.1588 152.363 11.2055C152.392 11.2522 152.406 11.3096 152.406 11.3777V12.8969C153.023 12.1736 153.638 11.6439 154.251 11.3076C154.864 10.9714 155.484 10.8032 156.109 10.8032C156.84 10.8032 157.456 10.9333 157.955 11.1922C158.454 11.4517 158.859 11.7987 159.167 12.233C159.475 12.6673 159.697 13.1751 159.831 13.7582C159.965 14.3413 160.032 15.0412 160.032 15.8578V22.8659H160.034Z" fill="white"/>
<path d="M66.7942 29.1395C66.7942 29.3677 66.7827 29.5658 66.7598 29.734C66.7369 29.9021 66.6968 30.0375 66.6394 30.1389C66.5821 30.241 66.5165 30.3164 66.4414 30.3638C66.3669 30.4118 66.2892 30.4358 66.2095 30.4358H58.0593V38.362H65.7624C65.8427 38.362 65.9198 38.3827 65.9949 38.4254C66.0694 38.4668 66.135 38.5361 66.193 38.6329C66.2503 38.729 66.2898 38.8577 66.3134 39.0199C66.3363 39.182 66.3477 39.3895 66.3477 39.6417C66.3477 39.8698 66.3363 40.0647 66.3134 40.2268C66.2898 40.3889 66.2503 40.521 66.193 40.6231C66.1357 40.7252 66.0694 40.8039 65.9949 40.858C65.9198 40.912 65.8427 40.9387 65.7624 40.9387H58.0593V50.6482C58.0593 50.7323 58.0357 50.813 57.9905 50.8911C57.9446 50.9692 57.8644 51.0292 57.7497 51.0719C57.6351 51.1139 57.4861 51.1493 57.3027 51.1793C57.1186 51.2093 56.8785 51.2247 56.5804 51.2247C56.3053 51.2247 56.0703 51.2093 55.8754 51.1793C55.6805 51.1493 55.5257 51.1139 55.4111 51.0719C55.2965 51.0299 55.2162 50.9698 55.1703 50.8911C55.1245 50.813 55.1016 50.7323 55.1016 50.6482V29.0674C55.1016 28.5991 55.2194 28.2722 55.4544 28.086C55.6894 27.8999 55.9384 27.8071 56.2021 27.8071H66.2095C66.2892 27.8071 66.3669 27.8311 66.4414 27.8785C66.5159 27.9272 66.5815 28.0046 66.6394 28.1127C66.6968 28.2208 66.7369 28.3622 66.7598 28.5364C66.7827 28.7105 66.7942 28.912 66.7942 29.1395Z" fill="white"/>
<path d="M89.6128 39.1906C89.6128 41.076 89.4007 42.7754 88.9766 44.2892C88.5524 45.8024 87.9193 47.09 87.0767 48.1529C86.2341 49.2157 85.1769 50.0323 83.9044 50.6028C82.6319 51.1732 81.1473 51.4581 79.4506 51.4581C77.7768 51.4581 76.3298 51.1966 75.1089 50.6742C73.888 50.1518 72.8792 49.3925 72.0824 48.3957C71.2857 47.3996 70.6927 46.162 70.3029 44.6848C69.9131 43.2077 69.7183 41.5084 69.7183 39.5869C69.7183 37.7494 69.9303 36.0801 70.3545 34.579C70.7787 33.0778 71.4149 31.8022 72.2633 30.7513C73.1116 29.7005 74.172 28.8899 75.4445 28.3194C76.7171 27.7497 78.2016 27.4641 79.8983 27.4641C81.5377 27.4641 82.965 27.7223 84.1795 28.2387C85.3947 28.7544 86.4061 29.5084 87.2149 30.4991C88.0238 31.4892 88.625 32.7142 89.0205 34.174C89.4147 35.6331 89.6128 37.3058 89.6128 39.1906ZM86.4825 39.4081C86.4825 38.087 86.3704 36.8588 86.1475 35.7245C85.9239 34.5897 85.552 33.6049 85.031 32.7696C84.5107 31.9356 83.8146 31.2831 82.9452 30.8154C82.0752 30.347 80.9982 30.1128 79.7168 30.1128C78.4341 30.1128 77.3578 30.365 76.4884 30.8694C75.6184 31.3738 74.9108 32.0463 74.3669 32.8863C73.823 33.727 73.4339 34.7084 73.1995 35.832C72.9645 36.9548 72.8473 38.1344 72.8473 39.3714C72.8473 40.7404 72.9556 42.0008 73.1734 43.1543C73.3912 44.3072 73.7574 45.3013 74.2727 46.136C74.7885 46.9706 75.4777 47.6191 76.3426 48.0808C77.2068 48.5432 78.2914 48.7747 79.5964 48.7747C80.89 48.7747 81.9778 48.5225 82.8599 48.0181C83.7413 47.5137 84.4508 46.8318 84.9896 45.9732C85.5272 45.1152 85.9106 44.1217 86.1405 42.9922C86.3685 41.8633 86.4825 40.6677 86.4825 39.4081Z" fill="white"/>
<path d="M109.129 50.6476C109.129 50.7443 109.112 50.8277 109.077 50.8998C109.042 50.9718 108.969 51.0319 108.853 51.0799C108.739 51.1279 108.578 51.164 108.372 51.188C108.166 51.212 107.89 51.2247 107.546 51.2247C107.248 51.2247 107.005 51.212 106.816 51.188C106.627 51.164 106.475 51.1246 106.361 51.0712C106.245 51.0172 106.157 50.9425 106.094 50.8457C106.031 50.7497 105.976 50.6296 105.931 50.4854L103.884 44.9918C103.644 44.3673 103.394 43.7936 103.136 43.2712C102.878 42.7494 102.571 42.2984 102.216 41.9208C101.86 41.5425 101.442 41.2483 100.961 41.0381C100.479 40.8286 99.9005 40.7225 99.2242 40.7225H97.2466V50.6482C97.2466 50.745 97.2212 50.8284 97.1689 50.9004C97.118 50.9725 97.0371 51.0292 96.9288 51.0719C96.8193 51.1139 96.6709 51.1493 96.4817 51.1793C96.2926 51.2093 96.0544 51.2247 95.7678 51.2247C95.4812 51.2247 95.2436 51.2093 95.0545 51.1793C94.8653 51.1493 94.7131 51.1139 94.5984 51.0719C94.4838 51.0299 94.4036 50.9732 94.3577 50.9004C94.3125 50.8284 94.2896 50.745 94.2896 50.6482V29.0674C94.2896 28.5991 94.4074 28.2722 94.6417 28.086C94.8768 27.8999 95.1264 27.8071 95.3901 27.8071H100.119C100.681 27.8071 101.148 27.8218 101.52 27.8518C101.893 27.8819 102.228 27.9145 102.526 27.9506C103.386 28.1067 104.145 28.3536 104.805 28.6891C105.464 29.0254 106.017 29.4517 106.464 29.9681C106.911 30.4845 107.246 31.0763 107.469 31.7422C107.694 32.4087 107.804 33.1453 107.804 33.9492C107.804 34.7305 107.704 35.4297 107.503 36.0482C107.302 36.6667 107.013 37.2131 106.635 37.6875C106.257 38.1619 105.804 38.5735 105.277 38.9218C104.749 39.2701 104.159 39.5643 103.505 39.8045C103.872 39.9726 104.205 40.1854 104.503 40.4436C104.801 40.7025 105.078 41.0114 105.337 41.3717C105.596 41.732 105.838 42.1456 106.068 42.6147C106.296 43.0823 106.526 43.6114 106.755 44.1992L108.75 49.3332C108.91 49.7649 109.013 50.0691 109.06 50.2426C109.106 50.4167 109.129 50.5522 109.129 50.6476ZM104.676 34.2735C104.676 33.3608 104.48 32.5895 104.091 31.9584C103.702 31.3285 103.047 30.8748 102.131 30.5986C101.844 30.5152 101.52 30.4545 101.16 30.4185C100.799 30.3825 100.325 30.3645 99.7407 30.3645H97.2473V38.2179H100.136C100.916 38.2179 101.589 38.1192 102.156 37.921C102.725 37.7228 103.197 37.4473 103.575 37.0924C103.954 36.7387 104.231 36.3218 104.41 35.8407C104.587 35.3603 104.676 34.8379 104.676 34.2735Z" fill="white"/>
<path d="M130.141 42.5054C130.141 43.9225 129.943 45.1868 129.548 46.297C129.152 47.4079 128.588 48.3473 127.854 49.1166C127.121 49.8852 126.226 50.4676 125.171 50.8639C124.117 51.2602 122.919 51.4584 121.577 51.4584C120.351 51.4584 119.233 51.2722 118.224 50.8999C117.215 50.5276 116.35 49.9779 115.628 49.2513C114.905 48.5254 114.349 47.6154 113.96 46.5225C113.57 45.4297 113.375 44.1687 113.375 42.7396V28.275C113.375 28.1789 113.398 28.0949 113.444 28.0228C113.489 27.9507 113.57 27.894 113.684 27.852C113.799 27.81 113.948 27.7739 114.131 27.7439C114.315 27.7146 114.556 27.6992 114.854 27.6992C115.129 27.6992 115.364 27.7146 115.559 27.7439C115.754 27.7739 115.905 27.81 116.014 27.852C116.124 27.894 116.201 27.9507 116.247 28.0228C116.292 28.0949 116.315 28.1789 116.315 28.275V42.362C116.315 43.4421 116.441 44.3855 116.694 45.1895C116.945 45.9941 117.31 46.664 117.785 47.1977C118.261 47.7328 118.834 48.1345 119.505 48.4053C120.176 48.6749 120.929 48.8103 121.766 48.8103C122.626 48.8103 123.391 48.6789 124.061 48.414C124.731 48.1491 125.299 47.7535 125.764 47.2251C126.228 46.6967 126.583 46.0428 126.83 45.2622C127.077 44.4816 127.2 43.5689 127.2 42.5241V28.275C127.2 28.1789 127.223 28.0949 127.268 28.0228C127.314 27.9507 127.394 27.894 127.509 27.852C127.623 27.81 127.776 27.7739 127.965 27.7439C128.154 27.7146 128.391 27.6992 128.678 27.6992C128.954 27.6992 129.186 27.7146 129.375 27.7439C129.564 27.7739 129.713 27.81 129.822 27.852C129.931 27.894 130.011 27.9507 130.063 28.0228C130.114 28.0949 130.14 28.1789 130.14 28.275V42.5054H130.141Z" fill="white"/>
<path d="M160.199 50.6476C160.199 50.7443 160.175 50.8277 160.128 50.8998C160.081 50.9718 159.998 51.0285 159.88 51.0712C159.762 51.1139 159.612 51.1486 159.428 51.1786C159.246 51.2087 159.006 51.224 158.711 51.224C158.439 51.224 158.206 51.2087 158.011 51.1786C157.816 51.1486 157.664 51.1133 157.551 51.0712C157.438 51.0292 157.359 50.9725 157.311 50.8998C157.264 50.8277 157.241 50.7443 157.241 50.6476V30.3471H157.207L149.366 50.7376C149.331 50.8217 149.283 50.8938 149.22 50.9538C149.157 51.0145 149.066 51.0646 148.945 51.1066C148.825 51.148 148.681 51.178 148.515 51.1967C148.348 51.2147 148.151 51.224 147.921 51.224C147.681 51.224 147.474 51.2113 147.302 51.1873C147.13 51.1633 146.987 51.1306 146.872 51.0886C146.757 51.0472 146.668 50.9958 146.606 50.9358C146.542 50.8757 146.499 50.8104 146.477 50.7376L138.98 30.3471H138.963V50.6482C138.963 50.745 138.939 50.8284 138.892 50.9004C138.845 50.9725 138.763 51.0292 138.644 51.0719C138.525 51.1139 138.372 51.1493 138.183 51.1793C137.994 51.2093 137.752 51.2247 137.457 51.2247C137.174 51.2247 136.937 51.2093 136.749 51.1793C136.56 51.1493 136.409 51.1139 136.297 51.0719C136.184 51.0299 136.108 50.9732 136.067 50.9004C136.026 50.8284 136.005 50.745 136.005 50.6482V29.2116C136.005 28.7072 136.133 28.3469 136.389 28.1307C136.645 27.9145 136.931 27.8071 137.245 27.8071H139.061C139.434 27.8071 139.759 27.8432 140.039 27.9152C140.318 27.9873 140.562 28.102 140.772 28.2575C140.981 28.4136 141.156 28.6118 141.296 28.8519C141.436 29.0928 141.557 29.3743 141.662 29.6986L148.024 46.5764H148.11L154.731 29.7526C154.859 29.3924 154.999 29.0861 155.15 28.8339C155.301 28.5817 155.468 28.3809 155.648 28.2301C155.828 28.0807 156.029 27.9726 156.25 27.9065C156.471 27.8405 156.728 27.8078 157.019 27.8078H158.923C159.097 27.8078 159.263 27.8345 159.421 27.8885C159.577 27.9432 159.712 28.0273 159.823 28.1407C159.933 28.2548 160.023 28.3989 160.094 28.5724C160.163 28.7465 160.198 28.96 160.198 29.2116V50.6476H160.199Z" fill="white"/>
<path d="M29.1943 21.9124L29.7077 60L39.989 17.1934L29.1943 21.9124Z" fill="#199BD7"/>
<path d="M28.8995 0L0 34.6756L29.1944 21.9124L28.8995 0Z" fill="#DCDA20"/>
<path d="M0 34.6756L29.7077 60L29.1944 21.9124L0 34.6756Z" fill="#009548"/>
</svg>
